<svg
   xmlns="http://www.w3.org/2000/svg"
   viewBox="0 0 512 307"
>
<g
   transform="translate(0.19234057,-102.55531)">
	<g
   id="g988">
		<g
   id="g986">
			<path
   d="m 474.433,218.339 v -31.351 c 0,-69.695 -167.048,-83.669 -237.21,-83.669 C 167.192,103.318 0,117.277 0,186.988 v 138.025 c 0,69.703 167.076,83.669 237.223,83.669 70.039,0 237.21,-13.966 237.21,-83.669 V 296.085 C 495.267,295.375 512,278.216 512,257.213 512,236.208 495.267,219.05 474.433,218.339 Z m -237.21,-74.772 c 122.539,0 192.142,29.235 196.922,43.414 -1.021,3.092 -7.093,7.406 -9.834,9.182 -91.401,-39.076 -282.826,-39.059 -374.19,0 -2.694,-1.743 -8.88,-6.228 -9.835,-9.182 4.701,-13.961 73.533,-43.414 196.937,-43.414 z m 123.287,75.175 c -73.042,15.574 -173.476,15.587 -246.584,0 73.055,-15.489 173.477,-15.502 246.584,0 z m 73.675,106.152 v 0 c -3.598,13.317 -71.812,43.537 -196.961,43.537 -121.888,0 -193.127,-29.294 -196.975,-43.537 v -88.053 c 88.791,44.863 303.95,45.256 393.936,0 z"
   id="path978" />
			<circle
   cx="237.213"
   cy="316.97198"
   r="23.799"
   id="circle980" />
			<circle
   cx="170.131"
   cy="316.97198"
   r="23.799"
   id="circle982" />
			<circle
   cx="304.29401"
   cy="316.97198"
   r="23.799"
   id="circle984" />
		</g>
	</g>
</g>
</svg>
