<?xml version="1.0" encoding="UTF-8" standalone="no"?>
<svg
   xmlns="http://www.w3.org/2000/svg"
   viewBox="0 0 20 16"
>
  <path
     fill-rule="evenodd"
     d="m 17.063078,0.07687551 c 1.656854,0 3,1.34314579 3,2.99999999 V 13.076876 c 0,1.656854 -1.343146,3 -3,3 H 3.0630775 c -1.6568542,0 -2.99999997,-1.343146 -2.99999997,-3 V 3.0768755 c 0,-1.6568542 1.34314577,-2.99999999 2.99999997,-2.99999999 z m 1,3.32799999 -7.341496,6.4245767 C 10.375975,10.131859 9.8741339,10.157059 9.5024878,9.9050538 L 9.4045729,9.8294522 2.0630775,3.4058755 v 9.6710005 c 0,0.552284 0.4477153,1 1,1 H 17.063078 c 0.552284,0 1,-0.447716 1,-1 z m -1.52,-1.328 H 3.5810775 l 6.4820005,5.6712318 z"
     id="path899" />
</svg>
