<svg
   xmlns="http://www.w3.org/2000/svg"
   viewBox="0 0 512 352">
  <g
     transform="translate(1.2032356,-79.368809)">
    <path
       d="m 432.733,208.866 h -20.371 c 2.082,-5.314 3.237,-11.089 3.237,-17.133 0,-25.989 -21.144,-47.134 -47.133,-47.134 -12.41,0 -23.708,4.829 -32.134,12.696 -8.426,-7.868 -19.723,-12.696 -32.133,-12.696 -25.989,0 -47.134,21.145 -47.134,47.134 0,6.043 1.156,11.818 3.238,17.133 h -20.37 c -8.284,0 -15,6.716 -15,15 v 64.268 c 0,8.284 6.716,15 15,15 H 241 V 352.4 c 0,8.284 6.716,15 15,15 h 160.667 c 8.284,0 15,-6.716 15,-15 v -49.267 h 1.066 c 8.284,0 15,-6.716 15,-15 v -64.268 c 0,-8.283 -6.715,-14.999 -15,-14.999 z M 321.333,337.4 H 271 v -34.267 h 50.333 z m 0,-64.266 h -66.399 v -34.268 h 66.399 z m 0,-64.268 H 304.2 c -9.447,0 -17.134,-7.686 -17.134,-17.133 0,-9.447 7.687,-17.133 17.134,-17.133 9.447,0 17.133,7.687 17.133,17.134 z m 30,-17.133 c 0,-9.447 7.687,-17.134 17.134,-17.134 9.447,0 17.133,7.687 17.133,17.134 0,9.447 -7.686,17.133 -17.133,17.133 H 351.333 Z M 401.667,337.4 h -50.334 v -34.267 h 50.334 z m 16.066,-64.266 h -66.4 v -34.268 h 66.4 z"
       id="path880" />
    <path
       d="M 448.8,80.333 H 63.2 c -34.849,0 -63.2,28.352 -63.2,63.2 v 224.934 c 0,34.849 28.352,63.2 63.2,63.2 h 385.6 c 34.849,0 63.2,-28.352 63.2,-63.2 V 143.533 c 0,-34.848 -28.352,-63.2 -63.2,-63.2 z M 482,368.467 c 0,18.307 -14.894,33.2 -33.2,33.2 H 63.2 c -18.307,0 -33.2,-14.894 -33.2,-33.2 V 143.533 c 0,-18.307 14.894,-33.2 33.2,-33.2 h 385.6 c 18.307,0 33.2,14.894 33.2,33.2 z"
       id="path882" />
    <path
       d="m 127.467,337.4 h -48.2 c -8.284,0 -15,6.716 -15,15 0,8.284 6.716,15 15,15 h 48.2 c 8.284,0 15,-6.716 15,-15 0,-8.284 -6.716,-15 -15,-15 z"
       id="path884" />
    <path
       d="m 79.267,174.6 h 48.2 c 8.284,0 15,-6.716 15,-15 0,-8.284 -6.716,-15 -15,-15 h -48.2 c -8.284,0 -15,6.716 -15,15 0,8.284 6.715,15 15,15 z"
       id="path886" />
    <path
       d="m 175.667,273.134 h -96.4 c -8.284,0 -15,6.716 -15,15 0,8.284 6.716,15 15,15 h 96.4 c 8.284,0 15,-6.716 15,-15 0,-8.284 -6.716,-15 -15,-15 z"
       id="path888" />
  </g>
</svg>
