<svg
   xmlns="http://www.w3.org/2000/svg"
   viewBox="0 0 512 372"
>
  <path
     d="m 473.1923,224.20124 h -11.359 v -12.485 c 0,-9.158 -2.876,-17.649 -7.758,-24.632 8.96,-21.466 12.491,-41.71 11.382,-64.906 -1.541,-32.204999 -13.775,-62.495999 -34.449,-85.292999 -21.228,-23.409 -49.03,-36.30100021 -78.283,-36.30100021 -44.644,0 -81.192,27.65800021 -96.315,41.09800021 -14.689,-13.568 -50.217,-41.09800021 -96.638,-41.09800021 -29.251,0 -57.053,12.89200021 -78.282,36.30100021 -20.675,22.798 -32.909,53.089 -34.45,85.294999 -1.107,23.197 2.422,43.442 11.378,64.91 -4.879,6.982 -7.753,15.471 -7.753,24.626 v 12.485 h -11.359 c -21.536,0 -39.05700017,17.578 -39.05700017,39.183 0,21.605 17.52100017,39.183 39.05700017,39.183 h 11.359 v 12.485 c 0,23.716 19.23,43.01 42.868,43.01 10.398,0 19.941,-3.736 27.371,-9.937 7.036,14.125 21.585,23.853 38.365,23.853 23.638,0 42.868,-19.294 42.868,-43.01 v -2.358 c 27.677,19.735 48.463,33.755 48.705,33.918 1.689,1.138 3.638,1.707 5.587,1.707 1.949,0 3.898,-0.569 5.586,-1.706 0.24,-0.162 20.849,-14.057 48.343,-33.668 v 2.108 c 0,23.716 19.23,43.01 42.868,43.01 16.779,0 31.329,-9.728 38.365,-23.853 7.431,6.201 16.974,9.937 27.371,9.937 23.638,0 42.868,-19.294 42.868,-43.01 v -12.485 h 11.359 c 21.536,0 39.057,-17.577 39.057,-39.183 0.003,-21.606 -17.518,-39.184 -39.054,-39.184 z m -406.174,-101.066 c 2.705,-56.545999 44.314,-102.549999 92.754,-102.549999 51.141,0 88.639,41.285 89,41.69 1.86,2.096 4.521,3.31 7.323,3.355 2.818,0.057 5.5,-1.094 7.427,-3.129 0.397,-0.419 40.25,-41.916 89.203,-41.916 48.439,0 90.049,46.004 92.754,102.549999 0.853,17.839 -1.473,33.687 -7.45,50.075 -5.747,-2.876 -12.218,-4.503 -19.064,-4.503 -10.398,0 -19.941,3.736 -27.371,9.937 -7.036,-14.125 -21.585,-23.853 -38.365,-23.853 -23.638,0 -42.868,19.294 -42.868,43.01 v 26.4 h -108.223 v -26.4 c 0,-23.716 -19.23,-43.01 -42.868,-43.01 -16.779,0 -31.329,9.728 -38.365,23.853 -7.431,-6.201 -16.974,-9.937 -27.371,-9.937 -6.848,0 -13.321,1.628 -19.069,4.505 -5.975,-16.389 -8.299,-32.238 -7.447,-50.077 z m 135.12,121.066 h 108.223 v 38.365 h -108.223 z m -162.832,38.366 c -10.508,0 -19.057,-8.606 -19.057,-19.183 0,-10.577 8.549,-19.183 19.057,-19.183 h 11.359 v 38.365 h -11.359 z m 54.227,55.495 c -12.609,0 -22.868,-10.322 -22.868,-23.01 v -103.336 c 0,-12.688 10.259,-23.01 22.868,-23.01 12.609,0 22.868,10.322 22.868,23.01 v 103.336 c 0,12.687 -10.258,23.01 -22.868,23.01 z m 88.605,-9.095 c 0,12.688 -10.259,23.01 -22.868,23.01 -12.609,0 -22.868,-10.322 -22.868,-23.01 v -131.165 c 0,-12.688 10.259,-23.01 22.868,-23.01 12.609,0 22.868,10.322 22.868,23.01 z m 74.293,11.174 c -9.406,-6.426 -29.722,-20.43 -53.503,-37.575 h 106.984 c -23.759,17.145 -44.075,31.15 -53.481,37.575 z m 119.666,-11.174 c 0,12.688 -10.259,23.01 -22.868,23.01 -12.609,0 -22.868,-10.322 -22.868,-23.01 v -131.165 c 0,-12.688 10.259,-23.01 22.868,-23.01 12.609,0 22.868,10.322 22.868,23.01 z m 65.736,-13.915 c 0,12.688 -10.259,23.01 -22.868,23.01 -12.609,0 -22.868,-10.322 -22.868,-23.01 v -103.336 c 0,-12.688 10.259,-23.01 22.868,-23.01 12.609,0 22.868,10.322 22.868,23.01 z m 31.359,-32.485 h -11.359 v -38.366 h 11.359 c 10.508,0 19.057,8.605 19.057,19.183 0,10.577 -8.549,19.183 -19.057,19.183 z"/>
</svg>
