<svg
   xmlns="http://www.w3.org/2000/svg"
   viewBox="0 0 24 18"
>
  <g
     id="g922"
     transform="translate(0.07428382,-2.9483172)">
    <path
       d="M 21.5,21 H 2.5 C 1.122,21 0,19.878 0,18.5 V 5.5 C 0,4.122 1.122,3 2.5,3 h 19 C 22.878,3 24,4.122 24,5.5 v 13 C 24,19.878 22.878,21 21.5,21 Z M 2.5,4 C 1.673,4 1,4.673 1,5.5 v 13 C 1,19.327 1.673,20 2.5,20 h 19 C 22.327,20 23,19.327 23,18.5 V 5.5 C 23,4.673 22.327,4 21.5,4 Z"
       id="path920" />
  </g>
  <g
     id="g926">
    <path
       d="M 7.5,12 C 6.122,12 5,10.878 5,9.5 5,8.122 6.122,7 7.5,7 8.878,7 10,8.122 10,9.5 10,10.878 8.878,12 7.5,12 Z m 0,-4 C 6.673,8 6,8.673 6,9.5 6,10.327 6.673,11 7.5,11 8.327,11 9,10.327 9,9.5 9,8.673 8.327,8 7.5,8 Z"
       id="path924" />
  </g>
  <g
     id="g930">
    <path
       d="M 11.5,17 C 11.224,17 11,16.776 11,16.5 v -1 C 11,14.673 10.327,14 9.5,14 h -4 C 4.673,14 4,14.673 4,15.5 v 1 C 4,16.776 3.776,17 3.5,17 3.224,17 3,16.776 3,16.5 v -1 C 3,14.122 4.122,13 5.5,13 h 4 c 1.378,0 2.5,1.122 2.5,2.5 v 1 c 0,0.276 -0.224,0.5 -0.5,0.5 z"
       id="path928" />
  </g>
  <g
     id="g934">
    <path
       d="m 20.5,9 h -6 C 14.224,9 14,8.776 14,8.5 14,8.224 14.224,8 14.5,8 h 6 C 20.776,8 21,8.224 21,8.5 21,8.776 20.776,9 20.5,9 Z"
       id="path932" />
  </g>
  <g
     id="g938">
    <path
       d="m 20.5,13 h -6 C 14.224,13 14,12.776 14,12.5 14,12.224 14.224,12 14.5,12 h 6 c 0.276,0 0.5,0.224 0.5,0.5 0,0.276 -0.224,0.5 -0.5,0.5 z"
       id="path936" />
  </g>
  <g
     id="g942">
    <path
       d="m 20.5,17 h -6 C 14.224,17 14,16.776 14,16.5 14,16.224 14.224,16 14.5,16 h 6 c 0.276,0 0.5,0.224 0.5,0.5 0,0.276 -0.224,0.5 -0.5,0.5 z"
       id="path940" />
  </g>
</svg>
