<svg
   xmlns="http://www.w3.org/2000/svg"
   viewBox="0 0 20 20">
  <path
     fill-rule="evenodd"
     d="m 8.8741955,0.0422834 h 2.3488025 c 1.675266,0.0037915 2.059916,0.01854561 2.948805,0.059103 1.064443,0.0485498 1.791419,0.21762049 2.427528,0.46485515 0.657625,0.2555314 1.215332,0.59748375 1.771332,1.15344415 0.555961,0.5560001 0.897913,1.1137072 1.153484,1.7713324 0.247195,0.6361092 0.416266,1.3630855 0.464816,2.4275284 0.04705,1.0311104 0.05937,1.3837179 0.06014,3.8594398 v 0.5275917 c -7.7e-4,2.475686 -0.0131,2.828293 -0.06014,3.859404 -0.04855,1.064442 -0.217621,1.791419 -0.464816,2.427528 -0.255571,0.657625 -0.597523,1.215332 -1.153484,1.771332 -0.556,0.555961 -1.113707,0.897913 -1.771332,1.153484 -0.636109,0.247195 -1.363085,0.416266 -2.427528,0.464816 -1.031111,0.04705 -1.383718,0.05937 -3.859404,0.06014 H 9.7848074 C 7.3090855,20.041514 6.956478,20.029188 5.9253676,19.982142 4.8609247,19.933592 4.1339484,19.764521 3.4978392,19.517326 2.840214,19.261755 2.282507,18.919803 1.7265068,18.363842 1.1705464,17.807842 0.82859406,17.250135 0.57306266,16.59251 0.325828,15.956401 0.15675729,15.229424 0.10820751,14.164982 0.06765012,13.276093 0.05289597,12.891443 0.04910451,11.216177 V 8.8673744 C 0.05289597,7.1920848 0.06765012,6.8074347 0.10820751,5.9185465 0.15675729,4.8541036 0.325828,4.1271273 0.57306266,3.4910181 0.82859406,2.8333929 1.1705464,2.2756858 1.7265068,1.7196857 2.282507,1.1637253 2.840214,0.82177295 3.4978392,0.56624155 4.1339484,0.31900689 4.8609247,0.14993618 5.9253676,0.1013864 6.8142559,0.06082901 7.198906,0.04607486 8.8741955,0.0422834 h 2.3488025 z m 1.9079555,1.801155 H 9.3150487 C 7.307684,1.8455241 6.956568,1.8581181 6.0075013,1.9014199 5.0324567,1.9458808 4.5029346,2.1087985 4.1505419,2.2457541 3.6837416,2.4271707 3.350602,2.6438781 3.0006705,2.9938493 2.6506992,3.3437809 2.4339918,3.6769204 2.2525752,4.1437208 2.1156196,4.4961135 1.9527019,5.0256355 1.908241,6.0006801 1.8649392,6.9497468 1.8523452,7.3008629 1.8502595,9.3082276 v 1.4671014 c 0.00209,2.007336 0.01468,2.358452 0.057982,3.307519 0.044461,0.975045 0.2073786,1.504567 0.3443342,1.856959 0.1814166,0.466801 0.3981637,0.79994 0.7480953,1.149872 0.3499315,0.349971 0.6830711,0.566678 1.1498714,0.748095 0.3523927,0.136956 0.8819148,0.299873 1.8569594,0.344334 1.0543994,0.04811 1.370628,0.05832 4.0411042,0.05832 2.670436,0 2.986704,-0.0102 4.041064,-0.05832 0.975045,-0.04446 1.504567,-0.207378 1.856959,-0.344334 0.4668,-0.181417 0.79994,-0.398124 1.149871,-0.748095 0.349971,-0.349932 0.56668,-0.683071 0.748095,-1.149872 0.136957,-0.352392 0.299874,-0.881914 0.344334,-1.856959 0.04811,-1.054519 0.05832,-1.370826 0.05832,-4.041064 0,-2.6702774 -0.0102,-2.9865853 -0.05832,-4.0411039 C 18.144468,5.0256355 17.981551,4.4961135 17.844595,4.1437208 17.663179,3.6769204 17.446471,3.3437809 17.0965,2.9938493 16.746568,2.6438781 16.413429,2.4271707 15.946628,2.2457541 15.594236,2.1087985 15.064714,1.9458808 14.089669,1.9014199 13.140602,1.8581181 12.789486,1.8455241 10.782151,1.8434384 Z m -0.733546,3.1980463 c 2.761576,0 5.00026,2.2386835 5.00026,5.0002983 0,2.761577 -2.238684,5.00026 -5.00026,5.00026 -2.7616156,0 -5.0002992,-2.238683 -5.0002992,-5.00026 0,-2.7616148 2.2386836,-5.0002983 5.0002992,-5.0002983 z m 0,1.7544819 c -1.7926326,0 -3.2458173,1.4531847 -3.2458173,3.2458164 0,1.792594 1.4531847,3.245778 3.2458173,3.245778 1.792593,0 3.245778,-1.453184 3.245778,-3.245778 0,-1.7926317 -1.453185,-3.2458164 -3.245778,-3.2458164 z m 5.416929,-3.4212417 c 0.690401,0 1.25009,0.5596896 1.25009,1.2500905 0,0.690401 -0.559689,1.2500492 -1.25009,1.2500492 -0.69036,0 -1.250049,-0.5596482 -1.250049,-1.2500492 0,-0.6904009 0.559689,-1.2500905 1.250049,-1.2500905 z"
     id="path871" />
</svg>
