<svg id="Capa_1" enable-background="new 0 0 510 510" height="512" viewBox="0 0 510 510" width="512" xmlns="http://www.w3.org/2000/svg"><g><path d="m0 465h30v45h30v-45h120v45h30v-45h30v-465h-240zm30-435h180v405h-180z"/><path d="m60 75h120v30h-120z"/><path d="m60 135h120v30h-120z"/><path d="m60 195h120v30h-120z"/><path d="m150 285h30v30h-30z"/><path d="m510 0h-240v465h30v45h30v-45h120v45h30v-45h30zm-30 435h-180v-405h180z"/><path d="m330 75h120v30h-120z"/><path d="m330 135h120v30h-120z"/><path d="m330 195h120v30h-120z"/><path d="m420 285h30v30h-30z"/></g></svg>