<svg
   xmlns="http://www.w3.org/2000/svg"
   viewBox="0 0 512 467"
>
<g
   id="g1104"
   transform="translate(1.1462278,-22.283569)">
	<path
   d="m 86.6,385.9 c -5.5,0 -10,4.5 -10,10 v 28.7 c 0,5.5 4.5,10 10,10 5.5,0 10,-4.5 10,-10 v -28.7 c 0,-5.5 -4.4,-10 -10,-10 z"
   id="path1086" />
	<path
   d="M 502,22.5 H 132.7 c -5.5,0 -10,4.5 -10,10 v 229.4 c -8.2,-6.1 -18.4,-9.7 -29.5,-9.7 H 80 c -27.3,0 -49.4,22.2 -49.4,49.4 v 30.1 C 13.2,335 0,350.3 0,368.6 v 83.2 c 0,20.8 16.9,37.7 37.7,37.7 h 97.9 c 20.8,0 37.7,-16.9 37.7,-37.7 v -10.6 h 68.2 v 38.3 c 0,5.5 4.5,10 10,10 h 65.8 c 5.5,0 10,-4.5 10,-10 v -38.3 h 98.8 v 38.3 c 0,5.5 4.5,10 10,10 H 502 c 5.5,0 10,-4.5 10,-10 V 431.2 173.6 c 0,-5.5 -4.5,-10 -10,-10 -5.5,0 -10,4.5 -10,10 V 421.2 H 327.3 V 42.5 H 492 v 151.4 c 0,5.5 4.5,10 10,10 5.5,0 10,-4.5 10,-10 V 32.5 c 0,-5.5 -4.5,-10 -10,-10 z m -451.4,279 c 0,-16.2 13.2,-29.4 29.4,-29.4 h 13.2 c 16.2,0 29.5,13.2 29.5,29.4 V 331 H 50.6 Z m 102.7,150.3 c 0,9.7 -7.9,17.7 -17.7,17.7 H 37.7 C 27.9,469.5 20,461.6 20,451.8 v -83.2 c 0,-9.7 7.9,-17.7 17.7,-17.7 h 97.9 c 9.8,0 17.7,7.9 17.7,17.7 z m 154,17.7 h -45.8 v -28.3 h 45.8 z m 0,-48.3 h -134 v -52.6 c 0,-18.4 -13.2,-33.7 -30.6,-37 v -30.1 -259 h 164.6 z m 138.8,20 H 492 v 28.3 h -45.9 z"
   id="path1088" />
	<path
   d="m 454.5,87.2 h -89.6 c -5.5,0 -10,4.5 -10,10 0,5.5 4.5,10 10,10 h 89.6 c 5.5,0 10,-4.5 10,-10 0,-5.5 -4.5,-10 -10,-10 z"
   id="path1090" />
	<path
   d="m 464.5,142.3 c 0,-5.5 -4.5,-10 -10,-10 h -89.6 c -5.5,0 -10,4.5 -10,10 0,5.5 4.5,10 10,10 h 89.6 c 5.5,0 10,-4.5 10,-10 z"
   id="path1092" />
	<path
   d="m 180.2,107.2 h 89.6 c 5.5,0 10,-4.5 10,-10 0,-5.5 -4.5,-10 -10,-10 h -89.6 c -5.5,0 -10,4.5 -10,10 0,5.5 4.5,10 10,10 z"
   id="path1094" />
	<path
   d="m 180.2,152.3 h 89.6 c 5.5,0 10,-4.5 10,-10 0,-5.5 -4.5,-10 -10,-10 h -89.6 c -5.5,0 -10,4.5 -10,10 0,5.5 4.5,10 10,10 z"
   id="path1096" />
	<path
   d="M 354.8,227.2 V 249 c 0,5.5 4.5,10 10,10 5.5,0 10,-4.5 10,-10 v -21.9 c 0,-5.5 -4.5,-10 -10,-10 -5.5,0 -10,4.5 -10,10.1 z"
   id="path1098" />
	<path
   d="m 180.2,259 c 5.5,0 10,-4.5 10,-10 v -21.9 c 0,-5.5 -4.5,-10 -10,-10 -5.5,0 -10,4.5 -10,10 V 249 c 0,5.6 4.5,10 10,10 z"
   id="path1100" />
	<path
   d="m 502,228.7 c -5.5,0 -10,4.5 -10,10 v 0.1 c 0,5.5 4.5,10 10,10 5.5,0 10,-4.5 10,-10 0,-5.5 -4.5,-10.1 -10,-10.1 z"
   id="path1102" />
</g>
</svg>
