<svg
   xmlns="http://www.w3.org/2000/svg"
   viewBox="0 0 277 21"
   fill="none">
  <path
     fill-rule="evenodd"
     clip-rule="evenodd"
     d="m 224.17705,6.313784 h 1.294 c 0.871,0 1.476,0.3643 1.476,1.1409 0,0.9588 -0.762,1.2136 -1.489,1.2136 h -1.282 v -2.3545 z m 47.587,3.4707999 h 1.282 c 1.379,0 1.67,0.7138001 1.67,1.3206001 0,1.296 -1.343,1.296 -1.706,1.296 h -1.245 V 9.7832839 Z m -47.587,0.0473 h 1.319 c 1.137,0 1.669,0.4000001 1.669,1.2616001 0,1.1988 -1.101,1.3317 -2.044,1.3317 h -0.943 V 9.8318839 Z m 40.679,-3.5180999 v -1.1877 h -6.146 v 1.1877 h 2.421 v 7.2985 h 1.306 v -7.2985 z m -13.645,-0.1459 c 1.088,0 1.923,0.4739 2.407,0.9354 v -1.5058 c -0.859,-0.4972 -1.874,-0.6185 -2.444,-0.6185 -2.527,0 -4.512,1.7231 -4.512,4.3907999 0,2.6665001 1.985,4.3865001 4.512,4.3865001 0.57,0 1.585,-0.1213 2.445,-0.6179 v -1.5015 c -0.484,0.4597 -1.32,0.9317 -2.408,0.9317 -1.96,0 -3.193,-1.368 -3.193,-3.2000001 0,-1.8319999 1.233,-3.2018999 3.193,-3.2018999 z m -15.543,7.445 h 4.849 v -1.1877 h -3.545 V 9.8448839 h 3.23 V 8.607884 h -3.23 v -2.2947 h 3.545 v -1.1877 h -4.849 v 8.4861 z m 34.789,0 h 2.686 c 1.609,0 2.866,-0.8603 2.866,-2.5194 0,-1.7219001 -1.342,-2.5588 -2.866,-2.5588 h -1.38 v -3.4092 h -1.306 z m -58.607,-1.0173 c -1.827,0 -3.097,-1.3323 -3.097,-3.2246001 0,-1.8916999 1.27,-3.2263999 3.097,-3.2263999 1.802,0 3.073,1.3353 3.073,3.2276999 0,1.8923001 -1.27,3.2246001 -3.073,3.2246001 z m 11.021,1.0173 h 2.539 c 1.646,0 3.11,-0.6302 3.11,-2.3496 0,-1.3107001 -0.726,-1.8560001 -1.5,-2.0615 0.847,-0.4 1.245,-0.9588 1.245,-1.8929 0,-1.637 -1.39,-2.1834 -2.781,-2.1834 h -2.614 v 8.4861 z m -11.021,-8.6326 c -2.564,0 -4.452,1.904 -4.452,4.3906999 0,2.4973001 1.888,4.3865001 4.452,4.3865001 2.527,0 4.427,-1.8892 4.427,-4.3865001 0,-2.4860999 -1.898,-4.3913999 -4.427,-4.3913999 z m -16.454,-1.8573 c 3.436,0 6.23,2.8025 6.23,6.2473999 0,3.4419001 -2.794,6.2412001 -6.23,6.2412001 -3.435,0 -6.23,-2.8 -6.23,-6.2412001 0,-3.4448999 2.795,-6.2473999 6.23,-6.2473999 z m -7.537,6.2479999 c 0,4.1200001 3.399,7.3816001 7.537,7.3816001 4.089,0 7.488,-3.1403 7.488,-7.3816001 0,-4.2337999 -3.399,-7.3876999 -7.488,-7.3876999 -4.138,0 -7.537,3.2751 -7.537,7.3876999 z m 7.96,3.2000001 c 1.089,0 1.924,-0.4726 2.408,-0.9329 v 1.5015 c -0.859,0.496 -1.876,0.6173 -2.444,0.6173 -2.527,0 -4.512,-1.72 -4.512,-4.3865001 0,-2.6688999 1.985,-4.3913999 4.512,-4.3913999 0.568,0 1.584,0.1206 2.444,0.6179 v 1.5064 c -0.484,-0.4615 -1.319,-0.9341 -2.408,-0.9341 -1.96,0 -3.193,1.3711 -3.193,3.2023999 0,1.8314001 1.233,3.2000001 3.193,3.2000001 z"
     fill="#c4c4c4"
     id="path888" />
  <path
     d="m 39.131544,16.962084 -0.3937,-1.9688 h -4.3996 l -0.7,1.9548 -3.5262,0.007 c 1.6787,-4.037 3.3611,-8.0725 5.047,-12.1065 0.287,-0.6843 0.7962,-1.0325 1.547,-1.029 0.574,0.0052 1.5102,0.0052 2.8105,0.0017 l 2.7265,13.1355 z m -3.8027,-4.6655 h 2.8349 l -1.0587,-4.935 z m -22.7308,-8.4788 3.5455,0.0035 -5.481,13.1425 -3.5892497,-0.0035 c -0.90256,-3.4714 -1.7939,-6.9458 -2.674,-10.423 -0.175,-0.693 -0.5215,-1.1777 -1.18825,-1.407 -0.59325,-0.2047 -1.582,-0.5197 -2.96799996,-0.9485 v -0.3587 H 5.9077943 c 0.98,0 1.55225,0.4742 1.736,1.4472 0.1855,0.9748 0.651,3.4563 1.4,7.4445 z m 8.4175,0.0035 -2.8035,13.139 -3.374,-0.0035 2.8,-13.139 z m 6.8425,-0.2432 c 1.0098,0 2.282,0.315 3.0135,0.6037 l -0.5915,2.7248 c -0.6615,-0.266 -1.75,-0.6248 -2.6653,-0.6125 -1.33,0.0227 -2.1525,0.581 -2.1525,1.1165 0,0.8715 1.428,1.3107 2.898,2.2626999 1.6783,1.0850001 1.8988,2.0598001 1.8778,3.1185001 -0.0228,2.198 -1.8777,4.3663 -5.7907,4.3663 -1.785,-0.0263 -2.4291,-0.1768 -3.885,-0.693 l 0.616,-2.8438 c 1.4822,0.6213 2.1104,0.819 3.3774,0.819 1.1603,0 2.1561,-0.469 2.1648,-1.2862 0.007,-0.581 -0.35,-0.8698 -1.652,-1.5873 -1.302,-0.7192 -3.129,-1.7150001 -3.1045,-3.7135 0.0297,-2.5585 2.4535,-4.2752 5.8958,-4.2752 z"
     fill="#c4c4c4"
     id="path890" />
  <path
     d="m 80.243044,2.349184 c 1.2145,0.9533 2.1962,2.1704 2.8709,3.5592 0.6746,1.3887 1.0245,2.9128 1.0231,4.4568 9e-4,1.5434 -0.3492,3.0669 -1.0238,4.4551 -0.6746,1.3882 -1.6561,2.6048 -2.8702,3.5579 -1.2143,-0.9532 -2.1959,-2.1701 -2.8705,-3.5586 -0.6747,-1.3885 -1.0246,-2.9122 -1.0235,-4.4559 -0.0011,-1.5438 0.3488,-3.0675 1.0235,-4.456 0.6746,-1.3885 1.6562,-2.6054 2.8705,-3.5585 z m -1.305,-0.873 c -1.2856,1.0973 -2.3175,2.4607 -3.0246,3.996 -0.707,1.5352 -1.0722,3.2057 -1.0704,4.896 -0.0017,1.6895 0.3632,3.3592 1.0697,4.8939 0.7065,1.5347 1.7377,2.8977 3.0223,3.9951 -1.5519,0.8712 -3.3048,1.321 -5.0845,1.3048 -1.7796,-0.0163 -3.5241,-0.498 -5.0598,-1.3973 -1.5358,-0.8994 -2.8095,-2.185 -3.6944,-3.7292 -0.8849,-1.5441 -1.3503,-3.293 -1.3498,-5.0727 4e-4,-1.7797 0.4667,-3.5283 1.3524,-5.072 0.8857,-1.5437 2.16,-2.8287 3.6962,-3.7273 1.5362,-0.8986 3.2809,-1.37940001 5.0606,-1.39470001 1.7796,-0.0154 3.5323,0.43540001 5.0838,1.30740001 z m 2.613,17.781 c 1.2846,-1.0974 2.3158,-2.4604 3.0223,-3.9951 0.7065,-1.5347 1.0715,-3.2044 1.0697,-4.8939 0.0018,-1.6903 -0.3634,-3.3608 -1.0704,-4.896 -0.7071,-1.5353 -1.739,-2.8987 -3.0246,-3.996 1.5515,-0.872 3.3042,-1.32280001 5.0838,-1.30740001 1.7797,0.0153 3.5244,0.49610001 5.0606,1.39470001 1.5362,0.8986 2.8105,2.1836 3.6962,3.7273 0.8857,1.5437 1.352,3.2923 1.3524,5.072 5e-4,1.7797 -0.4649,3.5286 -1.3498,5.0727 -0.8849,1.5442 -2.1586,2.8298 -3.6943,3.7292 -1.5358,0.8993 -3.2802,1.381 -5.0599,1.3973 -1.7797,0.0162 -3.5326,-0.4336 -5.0845,-1.3048 z"
     fill="#c4c4c4"
     id="path892" />
  <g
     clip-path="url(#clip0)"
     id="g902"
     transform="translate(0.24304434,-10.631916)">
    <path
       fill-rule="evenodd"
       clip-rule="evenodd"
       d="m 131.204,14 v 0.0061 c -0.006,0 -1.914,-0.0061 -2.423,1.8341 -0.466,1.6873 -1.781,6.3458 -1.817,6.4742 h -0.363 c 0,0 -1.345,-4.7624 -1.817,-6.4803 C 124.275,13.9939 122.361,14 122.361,14 H 118 v 14 h 4.361 v -8.3144 h 0.182 0.181 L 125.268,28 h 3.029 l 2.544,-8.3083 h 0.363 V 28 h 4.361 V 14 Z"
       fill="#c4c4c4"
       id="path894" />
    <path
       fill-rule="evenodd"
       clip-rule="evenodd"
       d="m 147.133,14 c 0,0 -1.278,0.1162 -1.877,1.4672 l -3.089,6.8472 h -0.364 V 14 h -4.36 v 14 h 4.118 c 0,0 1.339,-0.1223 1.938,-1.4672 l 3.029,-6.8472 h 0.363 V 28 h 4.361 V 14 Z"
       fill="#c4c4c4"
       id="path896" />
    <path
       fill-rule="evenodd"
       clip-rule="evenodd"
       d="m 153.19,20.3579 v 7.6419 h 4.361 v -4.4629 h 4.725 c 2.059,0 3.803,-1.3266 4.451,-3.179 z"
       fill="#c4c4c4"
       id="path898" />
    <path
       fill-rule="evenodd"
       clip-rule="evenodd"
       d="m 162.276,14 h -9.697 c 0.484,2.6655 2.465,4.8052 5.027,5.5022 0.581,0.1589 1.193,0.2445 1.823,0.2445 h 7.474 C 166.97,19.4288 167,19.1048 167,18.7686 167,16.1336 164.886,14 162.276,14 Z"
       fill="#c4c4c4"
       id="path900" />
  </g>
  <defs
     id="defs907">
    <clipPath
       id="clip0">
      <rect
         width="49"
         height="14"
         fill="#ffffff"
         transform="translate(118,14)"
         id="rect904"
         x="0"
         y="0" />
    </clipPath>
  </defs>
</svg>
