<svg
   xmlns="http://www.w3.org/2000/svg"
   viewBox="0 0 423 512"
>
<g
   id="XMLID_779_"
   transform="translate(-44.617143,0.23037533)">
	<g
   id="XMLID_484_">
		<path
   id="XMLID_581_"
   d="M 417.7,204.6 H 226.9 c 8.8,-10.1 14.2,-23.4 14.2,-37.8 0,-31.8 -25.9,-57.7 -57.7,-57.7 -31.8,0 -57.7,25.9 -57.7,57.7 0,14.5 5.4,27.7 14.2,37.8 H 94.3 c -27.5,0 -49.9,22.4 -49.9,49.9 v 58.9 c 0,5.5 4.5,10 10,10 5.5,0 10,-4.5 10,-10 v -58.9 c 0,-16.5 13.4,-29.9 29.9,-29.9 h 279.4 c 16.5,0 29.9,13.4 29.9,29.9 v 53.9 H 299.9 c -27.5,0 -49.9,22.4 -49.9,49.9 0,27.5 22.4,49.9 49.9,49.9 h 103.8 v 53.9 c 0,16.5 -13.4,29.9 -29.9,29.9 H 94.3 C 77.8,492 64.4,478.6 64.4,462.1 v -159 c 0,-5.5 -4.5,-10 -10,-10 -5.5,0 -10,4.5 -10,10 v 159 c 0,27.5 22.4,49.9 49.9,49.9 h 323.3 c 27.5,0 49.9,-22.4 49.9,-49.9 V 254.5 C 467.6,227 445.2,204.6 417.7,204.6 Z M 183.4,129.1 c 20.8,0 37.8,16.9 37.8,37.8 0,20.9 -16.9,37.8 -37.8,37.8 -20.8,0 -37.8,-16.9 -37.8,-37.8 0,-20.9 17,-37.8 37.8,-37.8 z m 230.2,95.5 h 4 c 16.5,0 29.9,13.4 29.9,29.9 v 53.9 h -24 v -53.9 c 0.2,-11.2 -3.6,-21.6 -9.9,-29.9 z M 270,358.3 c 0,-16.5 13.4,-29.9 29.9,-29.9 h 147.7 v 59.9 H 299.9 c -16.5,0 -29.9,-13.5 -29.9,-30 z M 417.7,492 h -4 c 6.3,-8.3 10,-18.7 10,-29.9 v -53.9 h 24 v 53.9 c -0.1,16.5 -13.5,29.9 -30,29.9 z" />
		<path
   id="XMLID_1260_"
   d="m 297.4,348.3 c -2.6,0 -5.2,1.1 -7.1,2.9 -1.9,1.8 -2.9,4.4 -2.9,7.1 0,2.6 1.1,5.2 2.9,7.1 1.9,1.9 4.4,2.9 7.1,2.9 2.6,0 5.2,-1.1 7.1,-2.9 1.9,-1.9 2.9,-4.4 2.9,-7.1 0,-2.6 -1.1,-5.2 -2.9,-7.1 -1.9,-1.8 -4.5,-2.9 -7.1,-2.9 z" />
		<path
   id="XMLID_1711_"
   d="m 328.6,137.4 c 31.8,0 57.7,-25.9 57.7,-57.7 0,-31.8 -25.9,-57.7 -57.7,-57.7 -31.8,0 -57.7,25.9 -57.7,57.7 0,31.8 25.9,57.7 57.7,57.7 z m 0,-95.5 c 20.8,0 37.8,16.9 37.8,37.8 0,20.9 -16.9,37.8 -37.8,37.8 -20.9,0 -37.8,-16.9 -37.8,-37.8 0,-20.9 17,-37.8 37.8,-37.8 z" />
		<path
   id="XMLID_1712_"
   d="m 231.1,98.4 c 5.5,0 10,-4.5 10,-10 V 10 c 0,-5.5 -4.5,-10 -10,-10 -5.5,0 -10,4.5 -10,10 v 78.4 c 0.1,5.5 4.5,10 10,10 z" />
		<path
   id="XMLID_1757_"
   d="m 183.2,63.9 c 5.5,0 10,-4.5 10,-10 V 10 c 0,-5.5 -4.5,-10 -10,-10 -5.5,0 -10,4.5 -10,10 v 43.9 c 0.1,5.5 4.5,10 10,10 z" />
		<path
   id="XMLID_1760_"
   d="m 54.4,368.3 c 2.6,0 5.2,-1.1 7.1,-2.9 1.9,-1.9 2.9,-4.4 2.9,-7.1 0,-2.6 -1.1,-5.2 -2.9,-7.1 -1.9,-1.9 -4.4,-2.9 -7.1,-2.9 -2.6,0 -5.2,1.1 -7.1,2.9 -1.9,1.8 -2.9,4.4 -2.9,7.1 0,2.6 1.1,5.2 2.9,7.1 1.8,1.9 4.5,2.9 7.1,2.9 z" />
	</g>
</g>
</svg>
