<svg id="Capa_1" enable-background="new 0 0 512 512" height="512" viewBox="0 0 512 512" width="512" xmlns="http://www.w3.org/2000/svg"><g><path d="m236.607 170.459c-5.858 5.858-5.858 15.355 0 21.213l21.213 21.213c5.858 5.857 15.354 5.859 21.214 0 5.857-5.858 5.857-15.355 0-21.213l-21.213-21.213c-5.86-5.857-15.356-5.857-21.214 0z"/><path d="m279.033 128.033c-5.858 5.858-5.858 15.355 0 21.213l21.213 21.213c5.857 5.858 15.354 5.858 21.213 0 5.858-5.858 5.858-15.355 0-21.213l-21.213-21.213c-5.856-5.857-15.354-5.858-21.213 0z"/><path d="m342.673 128.033c5.857 5.858 15.355 5.859 21.213 0 5.858-5.858 5.858-15.355 0-21.213l-21.213-21.213c-5.857-5.858-15.355-5.858-21.213 0s-5.858 15.355 0 21.213z"/><path d="m448.738 170.46c5.858-5.858 5.858-15.355 0-21.213l-21.213-21.213c-5.856-5.857-15.354-5.858-21.213 0-5.858 5.858-5.858 15.355 0 21.213l21.213 21.213c5.857 5.857 15.355 5.857 21.213 0z"/><path d="m300.246 297.738c5.857 5.858 15.355 5.859 21.213 0 5.858-5.858 5.858-15.355 0-21.213l-21.213-21.213c-5.857-5.858-15.355-5.858-21.213 0s-5.858 15.355 0 21.213z"/><path d="m363.886 255.313c5.858-5.858 5.858-15.355 0-21.213l-21.213-21.213c-5.856-5.857-15.354-5.858-21.213 0-5.858 5.858-5.858 15.355 0 21.213l21.213 21.213c5.857 5.857 15.354 5.857 21.213 0z"/><path d="m406.313 212.886c5.858-5.858 5.858-15.355 0-21.213l-21.214-21.213c-5.857-5.857-15.355-5.858-21.213 0s-5.858 15.355 0 21.213l21.214 21.213c5.857 5.857 15.355 5.858 21.213 0z"/><path d="m497 482h-406v-182h30v15c0 8.284 6.716 15 15 15s15-6.716 15-15v-60c0-8.284-6.716-15-15-15s-15 6.716-15 15v15h-30v-240h68.787l23.891 23.891c-10.253 11.97-13.52 28.297-8.471 43.442l9.487 28.46c1.809 5.425.42 11.307-3.624 15.351l-8.103 8.103c-5.857 5.858-5.857 15.355 0 21.213 5.858 5.857 15.355 5.858 21.213 0l127.279-127.28c5.858-5.858 5.858-15.355 0-21.213-5.857-5.858-15.355-5.858-21.213 0l-8.103 8.103c-4.043 4.043-9.927 5.431-15.35 3.624l-28.461-9.488c-15.148-5.048-31.474-1.781-43.442 8.472l-28.284-28.284c-2.813-2.813-6.628-4.394-10.606-4.394h-90c-8.284 0-15 6.716-15 15v467h-46c-8.284 0-15 6.716-15 15s6.716 15 15 15h482c8.284 0 15-6.716 15-15s-6.716-15-15-15zm-258.154-429.333 23.025 7.676-50.529 50.529-7.675-23.026c-1.808-5.424-.42-11.306 3.624-15.349l16.206-16.206c4.035-4.036 9.911-5.436 15.349-3.624z"/></g></svg>