<?xml version="1.0" encoding="utf-8"?>
<!-- Generator: Adobe Illustrator 24.3.0, SVG Export Plug-In . SVG Version: 6.00 Build 0)  -->
<svg version="1.1" id="Capa_1" xmlns="http://www.w3.org/2000/svg" xmlns:xlink="http://www.w3.org/1999/xlink" x="0px" y="0px"
	 viewBox="0 0 512 512" style="enable-background:new 0 0 512 512;" xml:space="preserve">
<style type="text/css">
	.st0{stroke:#000000;stroke-width:4;stroke-miterlimit:10;}
</style>
<g>
	<g>
		<path class="st0" d="M476.5,255.9c-9.8-55.6-42.2-138.8-141.3-219.9L292.6,1.9c-1.5-1.2-3.4-1.9-5.3-1.9h-51.2
			c-2.3,0-4.4,0.9-6,2.5l-34.1,34.1c-2.6,2.6-3.2,6.6-1.6,9.8l25.6,51.2c1.7,3.3,5.3,5.2,9,4.6l36.6-6.1
			c-10.2,31-26.5,104.8,29.8,149.5c-22.3,9.1-41.3,24.1-55,43.2c-22.8-17.7-51.4-27.5-81.1-27.5c-18.1,0-34.7,3.7-51.8,11.2
			l-65.6-16.4c-2.5-0.6-5.2-0.1-7.3,1.6s-3.3,4.1-3.3,6.7v238.9c0,2.6,1.2,5.1,3.3,6.7c1.5,1.2,3.4,1.8,5.2,1.8
			c0.7,0,1.4-0.1,2.1-0.3l65.7-16.4c25.7,9.8,52.7,14.8,80.6,14.8c54.1,0,111.8-18.3,170.4-54.5c67.2-41.5,111.5-91,113.3-93.1
			c0.8-0.9,1.4-1.9,1.7-3C474.2,357.8,487.2,316.6,476.5,255.9z M99.5,479.7l-51.2,12.8V275.5l51.2,12.8V479.7z M457.9,352.5
			c-15.7,17-178.8,187.3-341.3,127.8v-193c14.1-5.9,27.8-8.8,42.6-8.8c26.7,0,52.4,9,72.2,25.1c-6.4,12.3-10.6,25.3-12.3,39
			c-0.6,4.7,2.7,8.9,7.4,9.5c4.7,0.6,8.9-2.7,9.5-7.4c1.7-13.6,6.2-26.6,13.4-38.6c0.5-0.9,1.1-1.8,1.7-2.7
			c14.5-22.5,37.2-39,64-46.3c3.7-1,6.3-4.4,6.3-8.2v-1.3c0-3-1.6-5.8-4.1-7.3c-32.3-19.4-47.4-50.3-45-92
			c1.9-32.2,14.1-59,14.2-59.3c1.3-2.9,0.9-6.2-1-8.7c-1.9-2.5-5.1-3.8-8.2-3.2l-45,7.5l-20-40.1l27.3-27.3h44.7l40.3,32.2
			C497.1,190.5,463.1,334.4,457.9,352.5z"/>
	</g>
</g>
</svg>
