<?xml version="1.0" encoding="UTF-8" standalone="no"?>
<svg
   xmlns="http://www.w3.org/2000/svg"
   viewBox="0 -39 512.25012 433.49999"
>
  <path
     d="m 504.12294,-25.682378 c -6.25391,-7.648437 -15.6211,-11.859375 -26.37891,-11.859375 -5.84766,0 -12.04297,1.230469 -18.41016,3.664062 L 25.935436,131.56372 c -23.0000003,8.77734 -26.09765635,21.94922 -25.89843785,29.01953 0.1992185,7.07031 4.03906255,20.04687 27.49999985,27.51172 0.140626,0.043 0.28125,0.0859 0.421876,0.125 l 89.898436,25.72656 48.61719,139.02344 c 6.6289,18.95312 21.50781,30.72656 38.83594,30.72656 10.92578,0 21.67187,-4.57813 31.07812,-13.23438 l 55.60547,-51.19921 80.65234,64.9414 c 0.008,0.008 0.0195,0.0117 0.0274,0.0195 l 0.76562,0.61719 c 0.0703,0.0547 0.14453,0.11328 0.21485,0.16797 8.96484,6.95312 18.75,10.625 28.30859,10.62891 h 0.004 c 18.67578,0 33.54687,-13.82422 37.8789,-35.21485 L 510.85731,9.7824664 c 2.85156,-14.074219 0.46094,-26.6679694 -6.73437,-35.4648444 z M 147.93153,209.05981 321.37294,120.45434 213.37684,235.20825 c -1.76953,1.8789 -3.02344,4.17969 -3.64062,6.68359 L 188.912,326.2434 Z m 68.13281,139.33203 c -0.71875,0.66016 -1.4414,1.25 -2.16406,1.79297 l 19.32031,-78.25 35.14453,28.30078 z M 481.45497,3.8254354 410.44325,354.46997 c -0.6836,3.35547 -2.86719,11.16406 -8.48047,11.16406 -2.77344,0 -6.25781,-1.51172 -9.82422,-4.25781 l -91.39062,-73.58594 c -0.0117,-0.0117 -0.0274,-0.0234 -0.043,-0.0312 L 246.32606,243.96997 402.50184,78.020747 c 5,-5.3125 5.45313,-13.449219 1.07422,-19.285156 -4.38281,-5.835938 -12.32422,-7.671875 -18.82031,-4.351563 L 127.88856,185.61059 36.767467,159.54028 470.03309,-5.8503466 c 3.66016,-1.398437 6.21485,-1.691406 7.71094,-1.691406 0.91797,0 2.55078,0.109375 3.15625,0.855469 0.79687,0.972656 1.8125,4.289062 0.55469,10.511719 z m 0,0"
     id="path1640" />
</svg>
