<svg height="511pt" viewBox="-15 0 511 511.99964" width="511pt" xmlns="http://www.w3.org/2000/svg"><path d="m206.066406.75c-3.429687-.484375-6.929687-.75-10.492187-.75h-120.046875c-41.371094 0-75.027344 33.65625-75.027344 75.027344v362.136718c0 41.371094 33.65625 74.828126 75.027344 74.828126 87.980468 0-132.730469.015624 150.046875.003906 140.171875-.003906 255.109375-114.742188 255.109375-255.898438 0-147.675781-125.605469-266.515625-274.617188-255.347656zm154.570313 255.347656c0 8.398438-.773438 16.65625-2.25 24.691406l-28.101563-16.226562c.453125-5.628906.453125-11.300781 0-16.933594l28.09375-16.21875c1.480469 8.023438 2.257813 16.273438 2.257813 24.6875zm-63.214844-24.148437c4.648437 25.070312 3.996094 26.738281 0 48.296875l51.992187 30.015625c-4.117187 9.515625-9.28125 18.5-15.367187 26.785156l-51.683594-29.839844c-8.878906 7.597657-9.089843 7.835938-11.761719 9.851563v-120.921875c2.667969 2.007812 2.878907 2.246093 11.765626 9.851562l51.996093-30.023437c5.925781 8.046875 10.960938 16.761718 14.996094 25.996094zm-206.886719 26.121093-60.023437-40.015624v-83.976563l60.023437 40.015625zm-60.023437-3.945312 60.023437 40.015625v84.976563l-60.023437-40.015626zm90.035156-224.113281h30.011719v452.171875h-30.011719zm120.042969 188.042969-60.023438 40.015624v-83.976562l60.023438-40.015625zm-60.023438 76.085937 60.023438-40.015625v84.976562l-60.023438 40.015626zm90.035156 57.859375c5.101563-2.421875 9.988282-5.253906 14.640626-8.476562l27.914062 16.113281c-12.386719 10.679687-26.753906 19.167969-42.554688 24.789062zm14.640626-182.328125c-4.648438-3.222656-9.539063-6.054687-14.640626-8.480469v-32.457031c15.921876 5.601563 30.367188 14.042969 42.800782 24.679687zm-44.652344-94.644531v22.980468l-60.023438 40.015626v-108.011719h15.007813c24.820312 0 45.015625 20.195312 45.015625 45.015625zm-165.0625-45.015625h15.007812v108.011719l-60.023437-40.015626v-22.980468c0-24.820313 20.195312-45.015625 45.015625-45.015625zm-45.015625 407.152343v-61.992187l60.023437 40.011719v67h-15.007812c-24.820313 0-45.015625-20.195313-45.015625-45.019532zm150.054687 45.019532v-67l60.023438-40.011719v61.992187c0 24.824219-20.195313 45.019532-45.015625 45.019532zm246.59375-126.035156-25.132812-14.507813-15.007813 25.988281 25.097657 14.492188c-34.148438 50.894531-89.402344 88.601562-154.972657 97.847656 8.472657-12.152344 13.457031-26.902344 13.457031-42.800781v-21.261719c70.25-19.96875 120.046876-85.285156 120.046876-159.808594 0-38.917968-13.859376-76.734375-39.027344-106.480468-21.316406-25.191407-49.65625-43.398438-81.019532-52.324219v-22.265625c0-15.898438-4.988281-30.652344-13.457031-42.800782 64.777344 9.132813 120.675781 46.324219 155.449219 98.574219l-25.574219 14.761719 15.007813 25.992188 25.511718-14.730469c15.027344 30.683593 23.132813 64.632812 23.132813 99.273437 0 34.929688-8.238281 69.164063-23.511719 100.050782zm0 0"/></svg>