<svg
   xmlns="http://www.w3.org/2000/svg"
   viewBox="0 0 480 288"
>
  <path style="fill-rule:evenodd"
     d="m 469.37291,20.95213 c 3.56,-11.28 0,-19.48 -15.75,-19.48 h -52.37 c -13.21,0 -19.31,7.18 -22.87,14.86 0,0 -26.94,65.6 -64.56,108.13 -12.2,12.3 -17.79,16.4 -24.4,16.4 -3.56,0 -8.14,-4.1 -8.14,-15.37 v -105.07 c 0,-13.32 -4.06,-19.46999999 -15.25,-19.46999999 h -82.36 c -8.14,0 -13.22,6.14999999 -13.22,12.29999999 0,12.81 18.81,15.89 20.84,51.76 v 77.94 c 0,16.91 -3,20 -9.66,20 -17.79,0 -61,-66.11 -86.920003,-141.44 -5.04,-14.92 -10.16,-20.55999999 -23.38,-20.55999999 h -52.87 C 3.2129068,0.95213001 0.67290683,8.12213 0.67290683,15.81213 c 0,13.84 17.79000017,83.53 82.86000017,175.77 43.210003,63 104.720003,96.86 160.130003,96.86 33.56,0 37.62,-7.69 37.62,-20.5 v -47.66 c 0,-15.37 3.05,-17.93 13.73,-17.93 7.62,0 21.35,4.09 52.36,34.33 35.58,35.87 41.68,52.27 61.51,52.27 h 52.36 c 15.25,0 22.37,-7.69 18.3,-22.55 -4.57,-14.86 -21.86,-36.38 -44.23,-62 -12.2,-14.34 -30.5,-30.23 -36.09,-37.92 -7.62,-10.25 -5.59,-14.35 0,-23.57 -0.51,0 63.55,-91.22 70.15,-122"/>
</svg>
